<svg width="48" height="48" viewBox="0 0 48 48" fill="none" xmlns="http://www.w3.org/2000/svg">
<path fill-rule="evenodd" clip-rule="evenodd" d="M22.5659 12.6729C22.7369 12.4632 22.9547 12.2936 23.2031 12.1771C23.4515 12.0605 23.724 12 24 12C24.276 12 24.5485 12.0605 24.7969 12.1771C25.0453 12.2936 25.2631 12.4632 25.4341 12.6729L33.4763 22.5388C33.8155 22.9549 34 23.4696 34 23.9996C34 24.5297 33.8155 25.0443 33.4763 25.4604L25.4341 35.3263C25.2632 35.5363 25.0452 35.706 24.7967 35.8227C24.5482 35.9394 24.2756 36 23.9994 36C23.7232 36 23.4506 35.9394 23.2021 35.8227C22.9536 35.706 22.7356 35.5363 22.5646 35.3263L14.5237 25.4616C14.1845 25.0455 14 24.5309 14 24.0008C14 23.4707 14.1845 22.9561 14.5237 22.54L22.5659 12.6741V12.6729Z" fill="#F7FBFF"/>
</svg>
